# xmcd
#
# Track frame offsets:
#	150
#	19712
#	35945
#	49685
#	66952
#	82720
#	95305
#	110522
#	125425
#	142560
#	156162
#	171685
#	187590
#
# Disc length: 2779 seconds
#
# Revision: 2
# Processed by: cddbd v1.5.2PL0 Copyright (c) Steve Scherf et al.
# Submitted via: audiograbber 1.83.01
#
DISCID=a10ad90d
DTITLE=Dierks Bentley - Dierks Bentley
DYEAR=2003
DGENRE=Country
TTITLE0=What Was I Thinkin'
TTITLE1=Wish It Would Break
TTITLE2=Forget About You
TTITLE3=I Can Only Think Of One
TTITLE4=My Last Name
TTITLE5=Bartenders, Etc...
TTITLE6=Is Anybody Loving You These Days
TTITLE7=My Love Will Follow You
TTITLE8=How Am I Doin'
TTITLE9=Distant Shore
TTITLE10=I Bought The Shoes
TTITLE11=Whiskey Tears
TTITLE12=Train Travelin' (with The Del McCoury Band)
EXTD=
EXTT0=
EXTT1=
EXTT2=
EXTT3=
EXTT4=
EXTT5=
EXTT6=
EXTT7=
EXTT8=
EXTT9=
EXTT10=
EXTT11=
EXTT12=
PLAYORDER=
